<?xml version="1.0" encoding="utf-8"?><svg xmlns="http://www.w3.org/2000/svg" xmlns:xlink="http://www.w3.org/1999/xlink"><symbol viewBox="0 0 512 512" id="bars"><title>bars</title><path d="M70.22 147.24h371.57v34.83H70.22zM70.22 379.47h371.57v34.83H70.22zM70.22 263.36h371.57v34.83H70.22z"/></symbol><symbol viewBox="0 0 512 512" id="book"><title>book</title><path d="M429.3 413.1h-95.2c-24.7 0-43.6 4.7-58.4 11.4v-99.8H330V179.5c1.4-.1 2.7-.1 4.1-.1h95.2v233.7zm-342.4 0V179.4h95.2c1.4 0 2.8.1 4.2.1v192.8c.1 14.4 3.5 28.6 10 41.4-4.5-.4-9.2-.6-14.1-.6H86.9zm134.5-40.7c.3-14.9 7.3-28.9 19.1-37.9V414l-5.2-5.2c-8-8-13.5-21.9-13.9-34.9v-1.5zm0-239c0-26.3 21.3-47.6 47.6-47.6h25.9v203.8H269c-17.1 0-33.8 5.4-47.6 15.5V133.4zm112.7 10.8c-1.4 0-2.8.1-4.1.1V50.6h-61c-45.7 0-82.7 37.1-82.7 82.7v11c-1.4 0-2.7-.1-4.2-.1H51.8v304.1h130.3c34.4 0 52.5 10.9 66.1 23l8.4 8.4.2-.2 1.4 1.4c15.2-15.2 32.6-32.6 76-32.6h130.3v-304l-130.4-.1z"/></symbol><symbol viewBox="0 0 512 512" id="commenting-o"><title>commenting-o</title><path d="M380.71 128.69a51.41 51.41 0 0 1 52 52v124.66c0 30.1-21.85 51.94-52 51.94h-20.76a92.07 92.07 0 0 0-52 15.89 92.07 92.07 0 0 0-52-15.89H131.29c-30.11 0-52-21.84-52-51.94v-124.7a51.41 51.41 0 0 1 52-52h249.42m0-31.18H131.29c-46.52 0-83.14 36.62-83.14 83.14v124.74c0 47.1 35.81 83.12 83.14 83.12H256a61.11 61.11 0 0 1 43.41 17.91l8.55 8.53 8.55-8.52a61.12 61.12 0 0 1 43.41-17.91h20.78c47.33 0 83.14-36 83.14-83.12V180.65c0-46.52-36.62-83.14-83.14-83.14z"/><path d="M135.45 185.84h241.1v31.18h-241.1zM135.45 268.97h241.1v31.18h-241.1z"/></symbol><symbol viewBox="0 0 512 512" id="globe"><title>globe</title><path d="M259.3 41.76c-120.53 0-218.23 97.7-218.23 218.24s97.7 218.22 218.23 218.22S477.53 380.52 477.53 260 379.83 41.76 259.3 41.76zm16.37 145.59q32-.53 63.85-3.1a236.36 236.36 0 0 1 11.6 59.38h-75.45zm0-32.76V85.47a243.85 243.85 0 0 1 50.53 67q-25.2 1.7-50.53 2.11zm-32.74-69.12v69.11q-25.3-.43-50.53-2.17a243.86 243.86 0 0 1 50.53-66.94zm0 101.88v56.27h-75.45a236.44 236.44 0 0 1 11.6-59.38q31.86 2.59 63.85 3.11zm-108.24 56.27H74.63a184 184 0 0 1 20.58-69.87q25.17 4.24 50.6 7.19a269.4 269.4 0 0 0-11.12 62.68zm0 32.74A269.63 269.63 0 0 0 145.73 339q-25.4 2.93-50.52 7.18a184 184 0 0 1-20.58-69.87zm32.82 0h75.45v56.27q-32 .53-63.85 3.1a236.41 236.41 0 0 1-11.63-59.37zm75.45 89v69.12a243.83 243.83 0 0 1-50.53-67q25.19-1.68 50.5-2.09zm32.74 69.12v-69.09q25.31.43 50.53 2.17a243.85 243.85 0 0 1-50.56 66.95zm0-101.88v-56.24h75.45a236.42 236.42 0 0 1-11.6 59.38q-31.89-2.59-63.88-3.11zm108.25-56.27H444a184 184 0 0 1-20.58 69.87q-25.2-4.2-50.62-7.2a269.4 269.4 0 0 0 11.12-62.64zm0-32.74a269.45 269.45 0 0 0-11.16-62.67q25.46-2.94 50.66-7.2a184 184 0 0 1 20.55 69.9zm19.8-99.81q-21.25 3.25-42.68 5.52a272.26 272.26 0 0 0-41-64.41 186 186 0 0 1 83.63 58.92zM198.52 84.93a272.51 272.51 0 0 0-41 64.39q-21.37-2.28-42.57-5.51a186 186 0 0 1 83.57-58.88zM114.9 376.17q21.19-3.24 42.56-5.51A272.48 272.48 0 0 0 198.28 435a186 186 0 0 1-83.38-58.83zM320.1 435a272.48 272.48 0 0 0 41-64.38q21.37 2.28 42.56 5.51A186.06 186.06 0 0 1 320.1 435z"/></symbol><symbol viewBox="0 0 513 512" id="heart-o"><title>heart-o</title><path d="M430.3 129.81A115.62 115.62 0 0 0 348 95.72c-55 0-82.69 33.42-91.47 46.59-8.78-13.17-36.48-46.59-91.46-46.59H165a116.44 116.44 0 0 0-82.3 198.71c23.91 23.91 45.83 43.23 67 61.91 29.88 26.33 58.1 51.2 87.69 85.34 3.39 3.92 16.19 20.42 16.32 20.58l2.77 3.57 2.77-3.57c.13-.17 12.92-16.67 16.32-20.58 29.59-34.14 57.81-59 87.69-85.34 21.2-18.68 43.12-38 67-61.91a116.52 116.52 0 0 0 0-164.61zm-22.12 142.5c-23.24 23.24-44.78 42.22-65.6 60.57-29.2 25.73-56.81 50.07-86.09 83.12-29.27-33-56.89-57.39-86.1-83.13-20.82-18.35-42.36-37.32-65.59-60.56A85.12 85.12 0 0 1 165.07 127c60.28 0 80.4 52.21 91.46 71.76C267.59 179.2 287.7 127 348 127a85.16 85.16 0 0 1 60.19 145.31z"/></symbol><symbol viewBox="0 0 512 512" id="home"><title>home</title><path d="M419.37 303.25l31.43 31.44 23.11-23.11L256 93.67 38.09 311.58l23.1 23.1 31.44-31.44v161.89h326.74zm-130.7 129.2h-65.34V323.78h65.35zm32.67 0V291.11H190.65v141.34H125.3V270.58L256 139.88l130.7 130.7v161.87zM392.14 182.1h32.67c0-28.53-14.74-43.25-26.58-55.09-10.25-10.23-17-17-17-32s6.77-21.77 17-32c11.85-11.84 26.59-26.57 26.59-55.12h-32.68c0 15-6.77 21.77-17 32-11.85 11.83-26.59 26.56-26.59 55.11s14.75 43.29 26.6 55.13c10.23 10.23 16.99 16.98 16.99 31.97z"/></symbol><symbol viewBox="0 0 512 512" id="lips"><title>lips</title><path d="M389.47 201c-18-18-39-32.61-67.44-32.61-37.7 0-45.26 14.17-66 14.17s-28.36-14.17-61.42-14.17S140.52 183 122.5 201c-19.06 19-74.34 76-74.34 76C85.93 329 152.06 385.65 256 385.65S426 329 463.84 277c0 0-55.3-57-74.37-76zm-246.86 20c14.8-14.8 28.34-24.31 52-24.31 28.25 0 33 14.17 61.41 14.17s33.16-14 61.41-14.17c23.62-.11 37.16 9.51 52 24.31 14.33 14.33 14.18 14 45.38 43.35-19.22-.24-31.7-4.39-43.84-8.43-10.71-3.57-21.79-7.27-35.56-7.27-24.07 0-37.77 7.82-48.79 14.1-9.34 5.33-16.72 9.53-30.57 9.53-13.65 0-21-4.19-30.38-9.5-11.08-6.29-24.88-14.13-49-14.13-13.74 0-24.79 3.68-35.48 7.23-12.12 4-24.6 8.17-43.81 8.37C128.43 235 128.3 235.32 142.61 221zM256 357.31c-60.45 0-112.24-23.1-154.78-64.8 21.7-.72 36.49-5.6 48.86-9.72 9.71-3.23 17.38-5.78 26.53-5.78 16.62 0 25.13 4.83 35 10.43 10.89 6.19 23.24 13.2 44.37 13.2 21.37 0 33.72-7 44.61-13.25 9.76-5.57 18.19-10.37 34.75-10.37 9.17 0 16.86 2.56 26.59 5.81 12.36 4.12 27.12 9 48.76 9.78-42.59 41.61-94.3 64.7-154.69 64.7z"/></symbol><symbol viewBox="0 0 512 512" id="map-marker"><title>map-marker</title><path d="M256 155a68.59 68.59 0 1 0 68.59 68.59A68.59 68.59 0 0 0 256 155zm0 102.88a34.29 34.29 0 1 1 34.29-34.29A34.33 34.33 0 0 1 256 257.91z"/><path d="M378.45 102.37a174.39 174.39 0 0 0-244.9 0c-67.63 67-63 171.28 0 242.49C198.28 418 232.9 463.59 256 509.4c23.22-45.81 57.72-91.43 122.45-164.54 63.05-71.21 67.63-175.53 0-242.49zm-25.68 219.76c-44.37 50.13-74.49 87.29-96.77 120.15-22.2-32.76-52.35-69.95-96.8-120.15-25.57-28.88-39.91-64.59-40.39-100.56-.48-36.4 13-69.2 38.84-94.83a140.1 140.1 0 0 1 196.64 0c25.89 25.64 39.32 58.43 38.84 94.83-.44 35.97-14.79 71.68-40.36 100.56z"/></symbol><symbol viewBox="0 0 512 512" id="pencil"><title>pencil</title><path d="M173.044 314.46L385.26 102.243l22.324 22.324-212.217 212.216zM120.418 261.83L332.634 49.613l22.324 22.324L142.74 284.153zM92.92 364.23l16.71-62.33 45.62 45.62-62.33 16.71zM419.08 465.29c-32.17 0-48.77-11.73-63.42-22.07-12.9-9.11-23.09-16.3-45.27-16.3s-32.36 7.19-45.26 16.29c-14.66 10.35-31.28 22.07-63.47 22.07s-48.81-11.73-63.47-22.07c-12.9-9.1-23.1-16.29-45.27-16.29v-31.57c32.2 0 48.81 11.73 63.47 22.07 12.9 9.1 23.09 16.29 45.26 16.29s32.36-7.19 45.26-16.29c14.66-10.35 31.28-22.07 63.47-22.07s48.82 11.73 63.48 22.08c12.89 9.1 23.07 16.29 45.21 16.29z"/></symbol><symbol viewBox="0 0 512 512" id="quote-right"><title>quote-right</title><path d="M433.17 216.13c3.9 10.55 6 22.69 6 36.47 0 62-50.78 112.48-113.2 112.48v35.1c81.77 0 148.29-66.2 148.29-147.57 0-90.29-52.16-132.79-108.3-132.79-52.11 0-92.5 42.24-92.5 88.65a84 84 0 0 0 84 84c46.41 0 86.58-37.62 86.58-84zM197.5 216.13c3.9 10.55 6 22.69 6 36.47 0 62-50.78 112.48-113.2 112.48v35.1c81.77 0 148.29-66.2 148.29-147.57 0-90.29-52.16-132.79-108.3-132.79-52.11 0-92.5 42.24-92.5 88.65a84 84 0 0 0 84 84c46.41 0 86.58-37.62 86.58-84z"/></symbol><symbol viewBox="0 0 512 512" id="search"><title>search</title><path d="M314.85 72.93a148.91 148.91 0 0 0-116 242.4L48.16 466l22.57 22.58L221.45 337.9a149 149 0 1 0 93.41-265zm0 266a117.06 117.06 0 1 1 117.06-117.01A117.19 117.19 0 0 1 314.85 339z"/></symbol><symbol viewBox="0 0 512 512" id="smile-o"><title>smile-o</title><circle cx="195.71" cy="215.81" r="28.87"/><circle cx="345.82" cy="215.81" r="28.87"/><path d="M270.76 83c95.5 0 173.2 77.7 173.2 173.2s-77.7 173.2-173.2 173.2-173.2-77.7-173.2-173.2S175.26 83 270.76 83m0-34.64C156 48.38 62.92 141.43 62.92 256.22S156 464.06 270.76 464.06 478.61 371 478.61 256.22 385.55 48.38 270.76 48.38z"/><path d="M270.76 382.66A125.64 125.64 0 0 1 157 311.53l31.14-15.17a91.84 91.84 0 0 0 165.16 0l31.14 15.17a125.64 125.64 0 0 1-113.68 71.13z"/></symbol><symbol viewBox="0 0 512 512" id="ticket"><title>ticket</title><path d="M348.85 243.65a18.71 18.71 0 1 0 8.36 25.11 18.69 18.69 0 0 0-8.36-25.11z"/><path d="M376.65 178.21a157.38 157.38 0 0 0 19.1-74.74L221.07 28.61A147.12 147.12 0 0 1 177.83 133l-62.89 62.89c-26.71 26.71-43.61 66.5-43.61 107.26l78.57 33.6a156.26 156.26 0 0 0-19.37 74.7l175.08 74.85a147.15 147.15 0 0 1 43.23-104.38L411.73 319C438.44 292.32 455 252.53 455 211.77zm-235.24 44.14l62.89-62.89a188 188 0 0 0 15.81-18 18.7 18.7 0 1 0 19.33-30.91A182.47 182.47 0 0 0 250.71 82l105.21 45.09a118.68 118.68 0 0 1-13.49 35.54 18.72 18.72 0 1 0-23.6 28.83l-55.66 55.66a184.06 184.06 0 0 0-46.42 77.45l-105.52-45.09c4.53-21.72 15.12-42.08 30.18-57.13zM401.62 271A18.72 18.72 0 1 0 378 299.8l-55.66 55.66a184.06 184.06 0 0 0-46.42 77.45l-105.49-45.13a118.66 118.66 0 0 1 14.06-36.25L246.4 378a147.15 147.15 0 0 1 43.23-104.38l62.89-62.89c.49-.49 1-1 1.47-1.51l61.12 26.19A118.68 118.68 0 0 1 401.62 271z"/><path d="M272.88 168.82a18.72 18.72 0 1 0-8.34-25.13 18.68 18.68 0 0 0 8.34 25.13z"/></symbol><symbol viewBox="0 0 512 512" id="times-circle-o"><title>times-circle-o</title><path d="M339.43 148.31L256 231.73l-83.43-83.42-25.71 25.72 83.42 83.42-83.42 83.43 25.71 25.72L256 283.17l83.43 83.43 25.71-25.72-83.42-83.43 83.42-83.42-25.71-25.72z"/><path d="M256 39.22c-120.53 0-218.23 97.71-218.23 218.23S135.47 475.69 256 475.69 474.23 378 474.23 257.45 376.53 39.22 256 39.22zm0 400.09c-100.28 0-181.86-81.58-181.86-181.86S155.72 75.59 256 75.59s181.86 81.58 181.86 181.86S356.28 439.31 256 439.31z"/></symbol><symbol viewBox="0 0 512 512" id="trash-o"><title>trash-o</title><path d="M350.66 70.31a123.86 123.86 0 0 1-83-31.75L256 28.08l-11.65 10.48a123.85 123.85 0 0 1-83 31.75H93.44l3.07 34.83h64.83A158.74 158.74 0 0 0 256 74a158.75 158.75 0 0 0 94.66 31.17h64.83l3.07-34.83zM128.28 465.13h255.45L412.36 140H99.59zm246.05-290.29l-22.5 255.45H311l7.35-220.62h-34.89l-7.35 220.62h-40.23l-7.35-220.62h-34.85L201 430.29h-40.83l-22.54-255.45z"/></symbol><symbol viewBox="0 0 512 512" id="twitter"><title>twitter</title><path d="M480.63 127.06a175 175 0 0 1-50.33 13.8 88 88 0 0 0 38.53-48.46 176.7 176.7 0 0 1-55.69 21.28 87.72 87.72 0 0 0-149.36 79.92A248.84 248.84 0 0 1 83.14 102a87.75 87.75 0 0 0 27.13 117 87.66 87.66 0 0 1-39.7-11v1.09a87.74 87.74 0 0 0 70.3 85.94 88.78 88.78 0 0 1-23.09 3.07 84.13 84.13 0 0 1-16.5-1.63 87.69 87.69 0 0 0 81.86 60.87 175.85 175.85 0 0 1-108.87 37.49 186.27 186.27 0 0 1-20.91-1.2 247.75 247.75 0 0 0 134.35 39.43c161.23 0 249.37-133.55 249.37-249.37l-.29-11.35a175 175 0 0 0 43.84-45.28z"/></symbol><symbol viewBox="0 0 512 512" id="user-o"><title>user-o</title><path d="M256 76.76a66.62 66.62 0 1 1-66.62 66.62A66.69 66.69 0 0 1 256 76.76m0-32a98.59 98.59 0 1 0 98.59 98.59A98.59 98.59 0 0 0 256 44.78zM341.27 300.59a64 64 0 0 1 64 64v64H106.78v-64.04a64 64 0 0 1 64-64h170.49m0-32H170.74a95.93 95.93 0 0 0-95.94 96v95.92h362.4v-95.93a95.93 95.93 0 0 0-95.93-95.93z"/></symbol></svg>